# xmcd
#
# Track frame offsets: 
#        150
#        14902
#        34420
#        49199
#        64272
#        82197
#        101218
#        118379
#        136266
#        158978
#        175772
#        192598
#
# Disc length: 2824 seconds
#
# Revision: 3
# Processed by: cddbd v1.5.2PL0 Copyright (c) Steve Scherf et al.
# Submitted via: ExactAudioCopyFreeDBPlugin 1.0
#
DISCID=ba0b060c
DTITLE=Fiordaliso - FlashBack I Grandi Successi Originali CD2
DYEAR=2002
DGENRE=Italian/Pop
TTITLE0=Una Sporca Poesia
TTITLE1=I Giorni Dell'Addio
TTITLE2=Oramai
TTITLE3=All'Mprovviso
TTITLE4=Freddo Dicembre
TTITLE5=Vivere
TTITLE6=Viaggiando
TTITLE7=Sarà Migliore
TTITLE8=Volando Sognando
TTITLE9=Non E Un Mistero
TTITLE10=Credo In Me
TTITLE11=Vicino Al Cielo
EXTD=\n YEAR: 2009
EXTT0=
EXTT1=
EXTT2=
EXTT3=
EXTT4=
EXTT5=
EXTT6=
EXTT7=
EXTT8=
EXTT9=
EXTT10=
EXTT11=
PLAYORDER=
